<mxfile host="app.diagrams.net" modified="2021-05-28T02:16:33.674Z" agent="5.0 (Windows NT 10.0; Win64; x64) AppleWebKit/537.36 (KHTML, like Gecko) Chrome/90.0.4430.212 Safari/537.36" etag="O3CphSoTnJTVG9cd1f8V" version="14.7.2" type="github">
  <diagram id="R2lEEEUBdFMjLlhIrx00" name="Page-1">
    <mxGraphModel dx="1422" dy="762" grid="1" gridSize="10" guides="1" tooltips="1" connect="1" arrows="1" fold="1" page="1" pageScale="1" pageWidth="1169" pageHeight="827" math="0" shadow="0" extFonts="Permanent Marker^https://fonts.googleapis.com/css?family=Permanent+Marker">
      <root>
        <mxCell id="0" />
        <mxCell id="1" parent="0" />
        <mxCell id="UeSS0Ig3m6-hM4Sn8dAP-1" value="Report&#xa;Equipment and Tool Datasheet&#xa;FM-TESM-QM-006" style="swimlane;childLayout=stackLayout;horizontal=1;startSize=71;horizontalStack=0;rounded=1;fontSize=18;fontStyle=0;strokeWidth=2;resizeParent=0;resizeLast=1;shadow=0;dashed=0;align=center;" parent="1" vertex="1">
          <mxGeometry x="1350" y="29" width="280" height="681" as="geometry" />
        </mxCell>
        <mxCell id="UeSS0Ig3m6-hM4Sn8dAP-2" value="+TrackNo&#xa;&#xa;+toolID&#xa;+toolName&#xa;+toolBrand&#xa;+toolModel&#xa;+toolSN&#xa;+toolDistributor&#xa;+toolRange&#xa;+toolUsingRange&#xa;+toolClass&#xa;+toolEnvi&#xa;+toolRegisDate&#xa;&#xa;+areaName&#xa; &#xa;+Dept&#xa;+Section&#xa;+**Owner&#xa;&#xa;+Status&#xa;+Remark&#xa;&#xa;+User&#xa;+Photo&#xa;&#xa;+Cal detail" style="align=left;strokeColor=#FF3333;fillColor=none;spacingLeft=4;fontSize=18;verticalAlign=top;resizable=0;rotatable=0;part=1;" parent="UeSS0Ig3m6-hM4Sn8dAP-1" vertex="1">
          <mxGeometry y="71" width="280" height="610" as="geometry" />
        </mxCell>
        <mxCell id="UeSS0Ig3m6-hM4Sn8dAP-5" value="Table&#xa;Tool list" style="swimlane;childLayout=stackLayout;horizontal=1;startSize=46;horizontalStack=0;rounded=1;fontSize=18;fontStyle=0;strokeWidth=2;resizeParent=0;resizeLast=1;shadow=0;dashed=0;align=center;" parent="1" vertex="1">
          <mxGeometry x="1050" y="34" width="170" height="656" as="geometry">
            <mxRectangle x="400" y="60" width="140" height="30" as="alternateBounds" />
          </mxGeometry>
        </mxCell>
        <mxCell id="UeSS0Ig3m6-hM4Sn8dAP-6" value="+toolRegisDate&#xa;+toolModel&#xa;+toolType&#xa;+toolName&#xa;+toolSN&#xa;+toolBrand&#xa;+toolDistributor&#xa;+toolRange&#xa;+toolUsing range&#xa;+toolSpec&#xa;+toolResolution&#xa;+toolClass&#xa;+toolEnvi&#xa;+toolPhoto&#xa;&#xa;+modelName&#xa;+placeName&#xa;&#xa;+placeName &#xa;+deptName&#xa;+section&#xa;+Owner&#xa;+user&#xa;&#xa;+status&#xa;&#xa;+remark&#xa;&#xa;&#xa;" style="align=left;strokeColor=none;fillColor=none;spacingLeft=4;fontSize=18;verticalAlign=top;resizable=0;rotatable=0;part=1;" parent="UeSS0Ig3m6-hM4Sn8dAP-5" vertex="1">
          <mxGeometry y="46" width="170" height="610" as="geometry" />
        </mxCell>
        <mxCell id="UeSS0Ig3m6-hM4Sn8dAP-7" value="User information" style="swimlane;childLayout=stackLayout;horizontal=1;startSize=30;horizontalStack=0;rounded=1;fontSize=18;fontStyle=0;strokeWidth=2;resizeParent=0;resizeLast=1;shadow=0;dashed=0;align=center;" parent="1" vertex="1">
          <mxGeometry x="40" y="1200" width="170" height="110" as="geometry" />
        </mxCell>
        <mxCell id="UeSS0Ig3m6-hM4Sn8dAP-8" value="+userID&#xa;+userDept&#xa;+userPosition&#xa;" style="align=left;strokeColor=none;fillColor=none;spacingLeft=4;fontSize=18;verticalAlign=top;resizable=0;rotatable=0;part=1;" parent="UeSS0Ig3m6-hM4Sn8dAP-7" vertex="1">
          <mxGeometry y="30" width="170" height="80" as="geometry" />
        </mxCell>
        <mxCell id="UeSS0Ig3m6-hM4Sn8dAP-9" value="Area information" style="swimlane;childLayout=stackLayout;horizontal=1;startSize=30;horizontalStack=0;rounded=1;fontSize=18;fontStyle=0;strokeWidth=2;resizeParent=0;resizeLast=1;shadow=0;dashed=0;align=center;" parent="1" vertex="1">
          <mxGeometry x="40" y="960" width="170" height="90" as="geometry" />
        </mxCell>
        <mxCell id="UeSS0Ig3m6-hM4Sn8dAP-10" value="+areaID&#xa;+areaName &#xa;" style="align=left;strokeColor=none;fillColor=none;spacingLeft=4;fontSize=18;verticalAlign=top;resizable=0;rotatable=0;part=1;" parent="UeSS0Ig3m6-hM4Sn8dAP-9" vertex="1">
          <mxGeometry y="30" width="170" height="60" as="geometry" />
        </mxCell>
        <mxCell id="UeSS0Ig3m6-hM4Sn8dAP-11" value="Supplier information" style="swimlane;childLayout=stackLayout;horizontal=1;startSize=30;horizontalStack=0;rounded=1;fontSize=18;fontStyle=0;strokeWidth=2;resizeParent=0;resizeLast=1;shadow=0;dashed=0;align=center;" parent="1" vertex="1">
          <mxGeometry x="40" y="1070" width="200" height="110" as="geometry" />
        </mxCell>
        <mxCell id="UeSS0Ig3m6-hM4Sn8dAP-12" value="+supID&#xa;+supName&#xa;+supProduct&#xa;" style="align=left;strokeColor=none;fillColor=none;spacingLeft=4;fontSize=18;verticalAlign=top;resizable=0;rotatable=0;part=1;" parent="UeSS0Ig3m6-hM4Sn8dAP-11" vertex="1">
          <mxGeometry y="30" width="200" height="80" as="geometry" />
        </mxCell>
        <mxCell id="DwrCxTno6Cpm1RQc-lXB-1" value="Tool Name table" style="swimlane;childLayout=stackLayout;horizontal=1;startSize=30;horizontalStack=0;rounded=1;fontSize=18;fontStyle=0;strokeWidth=2;resizeParent=0;resizeLast=1;shadow=0;dashed=0;align=center;" parent="1" vertex="1">
          <mxGeometry x="40" y="29" width="180" height="311" as="geometry" />
        </mxCell>
        <mxCell id="DwrCxTno6Cpm1RQc-lXB-2" value="+toolModel&#xa;+toolName&#xa;+toolType&#xa;+toolBrand&#xa;+toolDistributor&#xa;+toolRange&#xa;+toolUsingRange&#xa;+toolSpec&#xa;+toolResolution&#xa;+toolClass&#xa;+toolEnvi&#xa;+toolPhoto" style="align=left;strokeColor=none;fillColor=none;spacingLeft=4;fontSize=18;verticalAlign=top;resizable=0;rotatable=0;part=1;" parent="DwrCxTno6Cpm1RQc-lXB-1" vertex="1">
          <mxGeometry y="30" width="180" height="281" as="geometry" />
        </mxCell>
        <mxCell id="DwrCxTno6Cpm1RQc-lXB-4" value="Class table" style="swimlane;childLayout=stackLayout;horizontal=1;startSize=30;horizontalStack=0;rounded=1;fontSize=18;fontStyle=0;strokeWidth=2;resizeParent=0;resizeLast=1;shadow=0;dashed=0;align=center;" parent="1" vertex="1">
          <mxGeometry x="40" y="360" width="170" height="70" as="geometry" />
        </mxCell>
        <mxCell id="DwrCxTno6Cpm1RQc-lXB-5" value="+classID&#xa;&#xa;" style="align=left;strokeColor=none;fillColor=none;spacingLeft=4;fontSize=18;verticalAlign=top;resizable=0;rotatable=0;part=1;" parent="DwrCxTno6Cpm1RQc-lXB-4" vertex="1">
          <mxGeometry y="30" width="170" height="40" as="geometry" />
        </mxCell>
        <mxCell id="DwrCxTno6Cpm1RQc-lXB-7" value="Dept Info" style="swimlane;childLayout=stackLayout;horizontal=1;startSize=30;horizontalStack=0;rounded=1;fontSize=18;fontStyle=0;strokeWidth=2;resizeParent=0;resizeLast=1;shadow=0;dashed=0;align=center;" parent="1" vertex="1">
          <mxGeometry x="40" y="440" width="170" height="110" as="geometry">
            <mxRectangle x="40" y="440" width="110" height="30" as="alternateBounds" />
          </mxGeometry>
        </mxCell>
        <mxCell id="DwrCxTno6Cpm1RQc-lXB-8" value="+deptCode&#xa;+deptName" style="align=left;strokeColor=none;fillColor=none;spacingLeft=4;fontSize=18;verticalAlign=top;resizable=0;rotatable=0;part=1;" parent="DwrCxTno6Cpm1RQc-lXB-7" vertex="1">
          <mxGeometry y="30" width="170" height="80" as="geometry" />
        </mxCell>
        <mxCell id="DwrCxTno6Cpm1RQc-lXB-10" value="Position info" style="swimlane;childLayout=stackLayout;horizontal=1;startSize=30;horizontalStack=0;rounded=1;fontSize=18;fontStyle=0;strokeWidth=2;resizeParent=0;resizeLast=1;shadow=0;dashed=0;align=center;" parent="1" vertex="1">
          <mxGeometry x="40" y="580" width="170" height="110" as="geometry">
            <mxRectangle x="40" y="489" width="130" height="30" as="alternateBounds" />
          </mxGeometry>
        </mxCell>
        <mxCell id="DwrCxTno6Cpm1RQc-lXB-11" value="+posCode&#xa;+posName" style="align=left;strokeColor=none;fillColor=none;spacingLeft=4;fontSize=18;verticalAlign=top;resizable=0;rotatable=0;part=1;" parent="DwrCxTno6Cpm1RQc-lXB-10" vertex="1">
          <mxGeometry y="30" width="170" height="80" as="geometry" />
        </mxCell>
        <mxCell id="cIa0VOECqoOO3GL2-5uM-1" value="Place info" style="swimlane;childLayout=stackLayout;horizontal=1;startSize=30;horizontalStack=0;rounded=1;fontSize=18;fontStyle=0;strokeWidth=2;resizeParent=0;resizeLast=1;shadow=0;dashed=0;align=center;" parent="1" vertex="1">
          <mxGeometry x="40" y="700" width="170" height="110" as="geometry">
            <mxRectangle x="40" y="529" width="110" height="30" as="alternateBounds" />
          </mxGeometry>
        </mxCell>
        <mxCell id="cIa0VOECqoOO3GL2-5uM-2" value="+placeCode&#xa;+placeName" style="align=left;strokeColor=none;fillColor=none;spacingLeft=4;fontSize=18;verticalAlign=top;resizable=0;rotatable=0;part=1;" parent="cIa0VOECqoOO3GL2-5uM-1" vertex="1">
          <mxGeometry y="30" width="170" height="80" as="geometry" />
        </mxCell>
        <mxCell id="cIa0VOECqoOO3GL2-5uM-4" value="Battery Model" style="swimlane;childLayout=stackLayout;horizontal=1;startSize=30;horizontalStack=0;rounded=1;fontSize=18;fontStyle=0;strokeWidth=2;resizeParent=0;resizeLast=1;shadow=0;dashed=0;align=center;" parent="1" vertex="1">
          <mxGeometry x="40" y="830" width="170" height="110" as="geometry">
            <mxRectangle x="40" y="569" width="140" height="30" as="alternateBounds" />
          </mxGeometry>
        </mxCell>
        <mxCell id="cIa0VOECqoOO3GL2-5uM-5" value="+modelCode&#xa;+modelName" style="align=left;strokeColor=none;fillColor=none;spacingLeft=4;fontSize=18;verticalAlign=top;resizable=0;rotatable=0;part=1;" parent="cIa0VOECqoOO3GL2-5uM-4" vertex="1">
          <mxGeometry y="30" width="170" height="80" as="geometry" />
        </mxCell>
        <mxCell id="cIa0VOECqoOO3GL2-5uM-13" value="Track no. query" style="swimlane;childLayout=stackLayout;horizontal=1;startSize=30;horizontalStack=0;rounded=1;fontSize=18;fontStyle=0;strokeWidth=2;resizeParent=0;resizeLast=1;shadow=0;dashed=0;align=center;arcSize=21;" parent="1" vertex="1">
          <mxGeometry x="734" y="40" width="170" height="125" as="geometry">
            <mxRectangle x="680" y="280" width="160" height="30" as="alternateBounds" />
          </mxGeometry>
        </mxCell>
        <mxCell id="cIa0VOECqoOO3GL2-5uM-14" value="+toolRegisDate&#xa;COUNT&#xa;" style="align=left;strokeColor=none;fillColor=none;spacingLeft=4;fontSize=18;verticalAlign=top;resizable=0;rotatable=0;part=1;" parent="cIa0VOECqoOO3GL2-5uM-13" vertex="1">
          <mxGeometry y="30" width="170" height="95" as="geometry" />
        </mxCell>
        <mxCell id="cIa0VOECqoOO3GL2-5uM-20" value="toolID query" style="swimlane;childLayout=stackLayout;horizontal=1;startSize=30;horizontalStack=0;rounded=1;fontSize=18;fontStyle=0;strokeWidth=2;resizeParent=0;resizeLast=1;shadow=0;dashed=0;align=center;" parent="1" vertex="1">
          <mxGeometry x="734" y="360" width="170" height="130" as="geometry">
            <mxRectangle x="610" y="570" width="110" height="30" as="alternateBounds" />
          </mxGeometry>
        </mxCell>
        <mxCell id="cIa0VOECqoOO3GL2-5uM-21" value="+deptCode&#xa;+modelCode&#xa;+placeCode&#xa;COUNT" style="align=left;strokeColor=none;fillColor=none;spacingLeft=4;fontSize=18;verticalAlign=top;resizable=0;rotatable=0;part=1;" parent="cIa0VOECqoOO3GL2-5uM-20" vertex="1">
          <mxGeometry y="30" width="170" height="100" as="geometry" />
        </mxCell>
        <mxCell id="XDYltUTeysejlKrnHvJB-1" value="Report&#xa;Equipment and Tool Tracking Form&#xa;FM-TESM-QM-007" style="swimlane;childLayout=stackLayout;horizontal=1;startSize=71;horizontalStack=0;rounded=1;fontSize=18;fontStyle=0;strokeWidth=2;resizeParent=0;resizeLast=1;shadow=0;dashed=0;align=center;" parent="1" vertex="1">
          <mxGeometry x="1350" y="760" width="280" height="611" as="geometry" />
        </mxCell>
        <mxCell id="XDYltUTeysejlKrnHvJB-2" value="+toolName&#xa;+S/N&#xa;+ID Control&#xa;+topicDetail&#xa;+value_Old&#xa;+value_New&#xa;&#xa;+dept_Old&#xa;+model_Old&#xa;+areaID_Old&#xa;+areaID_New&#xa;+Reason&#xa;&#xa;+name_Informer&#xa;+date_Issue&#xa;+date_Operation&#xa;&#xa;+name_Approver&#xa;+date_Approve&#xa;+bool_Approve&#xa;&#xa;+Remark" style="align=left;strokeColor=#FF3333;fillColor=none;spacingLeft=4;fontSize=18;verticalAlign=top;resizable=0;rotatable=0;part=1;" parent="XDYltUTeysejlKrnHvJB-1" vertex="1">
          <mxGeometry y="71" width="280" height="540" as="geometry" />
        </mxCell>
        <mxCell id="TiywZgRd603gORr2C4wr-1" value="Topic Table" style="swimlane;childLayout=stackLayout;horizontal=1;startSize=30;horizontalStack=0;rounded=1;fontSize=18;fontStyle=0;strokeWidth=2;resizeParent=0;resizeLast=1;shadow=0;dashed=0;align=center;" parent="1" vertex="1">
          <mxGeometry x="734" y="1110" width="170" height="90" as="geometry" />
        </mxCell>
        <mxCell id="TiywZgRd603gORr2C4wr-2" value="+topicID&#xa;+topicDetail&#xa;" style="align=left;strokeColor=none;fillColor=none;spacingLeft=4;fontSize=18;verticalAlign=top;resizable=0;rotatable=0;part=1;" parent="TiywZgRd603gORr2C4wr-1" vertex="1">
          <mxGeometry y="30" width="170" height="60" as="geometry" />
        </mxCell>
        <mxCell id="TiywZgRd603gORr2C4wr-3" value="Cal detail table" style="swimlane;childLayout=stackLayout;horizontal=1;startSize=30;horizontalStack=0;rounded=1;fontSize=18;fontStyle=0;strokeWidth=2;resizeParent=0;resizeLast=1;shadow=0;dashed=0;align=center;" parent="1" vertex="1">
          <mxGeometry x="310" y="690" width="170" height="310" as="geometry">
            <mxRectangle x="400" y="60" width="140" height="30" as="alternateBounds" />
          </mxGeometry>
        </mxCell>
        <mxCell id="TiywZgRd603gORr2C4wr-4" value="+calDate_Next&#xa;+calDate_Recent&#xa;+calDue&#xa;+calBy&#xa;+calResult&#xa;+calCorrection&#xa;+calFrequency&#xa;&#xa;+calCorrection&#xa;+calApprove&#xa;+cerNo&#xa;+calRemark" style="align=left;strokeColor=none;fillColor=none;spacingLeft=4;fontSize=18;verticalAlign=top;resizable=0;rotatable=0;part=1;" parent="TiywZgRd603gORr2C4wr-3" vertex="1">
          <mxGeometry y="30" width="170" height="280" as="geometry" />
        </mxCell>
        <mxCell id="cNTu41W8Wc8I5G5StsUP-1" value="Record&#xa;Master list Calibration plan follow up&#xa;FM-TESM-QM-002" style="swimlane;childLayout=stackLayout;horizontal=1;startSize=70;horizontalStack=0;rounded=1;fontSize=18;fontStyle=0;strokeWidth=2;resizeParent=0;resizeLast=1;shadow=0;dashed=0;align=center;" parent="1" vertex="1">
          <mxGeometry x="1350" y="1390" width="300" height="330" as="geometry" />
        </mxCell>
        <mxCell id="cNTu41W8Wc8I5G5StsUP-2" value="+toolName&#xa;+toolBrand&#xa;+toolSN&#xa;+toolID&#xa;+calFrequency&#xa;+calLocation&#xa;+calDate_Recent&#xa;+calStatus&#xa;+calDue&#xa;&#xa;+Remark" style="align=left;strokeColor=#FF3333;fillColor=none;spacingLeft=4;fontSize=18;verticalAlign=top;resizable=0;rotatable=0;part=1;" parent="cNTu41W8Wc8I5G5StsUP-1" vertex="1">
          <mxGeometry y="70" width="300" height="260" as="geometry" />
        </mxCell>
        <mxCell id="cNTu41W8Wc8I5G5StsUP-3" value="toolStatus Table" style="swimlane;childLayout=stackLayout;horizontal=1;startSize=30;horizontalStack=0;rounded=1;fontSize=18;fontStyle=0;strokeWidth=2;resizeParent=0;resizeLast=1;shadow=0;dashed=0;align=center;" parent="1" vertex="1">
          <mxGeometry x="734" y="530" width="170" height="90" as="geometry" />
        </mxCell>
        <mxCell id="cNTu41W8Wc8I5G5StsUP-4" value="+toolstatID&#xa;+toolstatDetail&#xa;" style="align=left;strokeColor=none;fillColor=none;spacingLeft=4;fontSize=18;verticalAlign=top;resizable=0;rotatable=0;part=1;" parent="cNTu41W8Wc8I5G5StsUP-3" vertex="1">
          <mxGeometry y="30" width="170" height="60" as="geometry" />
        </mxCell>
        <mxCell id="cNTu41W8Wc8I5G5StsUP-5" value="calStatus Table" style="swimlane;childLayout=stackLayout;horizontal=1;startSize=30;horizontalStack=0;rounded=1;fontSize=18;fontStyle=0;strokeWidth=2;resizeParent=0;resizeLast=1;shadow=0;dashed=0;align=center;" parent="1" vertex="1">
          <mxGeometry x="734" y="770" width="170" height="90" as="geometry" />
        </mxCell>
        <mxCell id="cNTu41W8Wc8I5G5StsUP-6" value="+calstatID&#xa;+calstatDetail&#xa;" style="align=left;strokeColor=none;fillColor=none;spacingLeft=4;fontSize=18;verticalAlign=top;resizable=0;rotatable=0;part=1;" parent="cNTu41W8Wc8I5G5StsUP-5" vertex="1">
          <mxGeometry y="30" width="170" height="60" as="geometry" />
        </mxCell>
        <mxCell id="cNTu41W8Wc8I5G5StsUP-9" value="&lt;font style=&quot;font-size: 18px&quot;&gt;Register tool&lt;/font&gt;" style="shape=rhombus;perimeter=rhombusPerimeter;whiteSpace=wrap;html=1;align=center;" parent="1" vertex="1">
          <mxGeometry x="440" y="280" width="160" height="60" as="geometry" />
        </mxCell>
        <mxCell id="xRUyGGWKxkzAmYZurhJg-2" value="Relation" style="endArrow=open;html=1;endSize=12;startArrow=diamondThin;startSize=14;startFill=0;edgeStyle=orthogonalEdgeStyle;exitX=1;exitY=0.5;exitDx=0;exitDy=0;entryX=0;entryY=0.5;entryDx=0;entryDy=0;" edge="1" parent="1" source="DwrCxTno6Cpm1RQc-lXB-2" target="cNTu41W8Wc8I5G5StsUP-9">
          <mxGeometry relative="1" as="geometry">
            <mxPoint x="640" y="390" as="sourcePoint" />
            <mxPoint x="800" y="390" as="targetPoint" />
          </mxGeometry>
        </mxCell>
        <mxCell id="xRUyGGWKxkzAmYZurhJg-3" value="0..n" style="edgeLabel;resizable=0;html=1;align=left;verticalAlign=top;" connectable="0" vertex="1" parent="xRUyGGWKxkzAmYZurhJg-2">
          <mxGeometry x="-1" relative="1" as="geometry" />
        </mxCell>
        <mxCell id="xRUyGGWKxkzAmYZurhJg-4" value="1" style="edgeLabel;resizable=0;html=1;align=right;verticalAlign=top;" connectable="0" vertex="1" parent="xRUyGGWKxkzAmYZurhJg-2">
          <mxGeometry x="1" relative="1" as="geometry" />
        </mxCell>
      </root>
    </mxGraphModel>
  </diagram>
</mxfile>
